<svg viewBox="281.625 229.47619047619037 957.525 601.9047619047619" xmlns="http://www.w3.org/2000/svg" xmlns:blush="http://design.blush" overflow="visible" xmlns:xlink="http://www.w3.org/1999/xlink" width="957.525px" height="601.9047619047619px"><g id="Master/Scenes/Alone Time" stroke="none" stroke-width="1" fill="none" fill-rule="evenodd" blush:viewBox="277.8699999999999 189.0000000000001 946.26 637.5" blush:i="0"><path d="M304.8096,551.3704 C342.1986,408.6124 400.9426,381.2394 433.3816,388.5524 C460.3096,394.6204 471.7316,431.5874 473.7806,449.9464 C473.7806,449.9464 499.1306,420.6614 533.4206,427.7144 C564.7156,434.1514 571.3816,495.5484 571.3816,495.5484 C591.2456,433.3724 639.9526,359.1414 701.3256,331.6044 C788.4606,292.5084 831.7316,384.7354 821.2866,457.5484 C834.7586,426.5344 886.0486,406.8174 912.0486,415.4854 C941.9756,425.4624 944.3146,458.3564 945.6846,485.8974 C968.7156,471.4854 992.3616,464.3914 1010.8866,498.1534 C1021.1876,516.9274 1020.1046,538.8584 1016.8426,559.4404 C1016.2866,562.9584 1014.2746,570.0574 1004.2526,570.2124 C952.3716,571.0114 762.0226,572.1534 704.7666,572.1534 C636.9306,572.1534 569.7726,569.1324 501.9906,572.1534 C459.1966,574.0594 357.5166,571.8504 327.0596,572.1204 C298.8096,572.3704 302.0596,561.8704 304.8096,551.3704" id="Big-Bush" fill="#FD839D" opacity=".9" blush:i="0.0"/><g id="Big Flower" transform="translate(285.000000, 240.000000) scale(1 1)" blush:width="174" blush:height="416" blush:component="Big Flower" blush:i="0.1" blush:value="Flower 5" blush:viewBox="4.787081339712927 41.60000000000002 164.4258373205742 374.39999999999986"><g id="Big Flower/Flower 5" stroke="none" stroke-width="1" fill="none" fill-rule="evenodd" blush:viewBox="4.787081339712927 41.60000000000002 164.4258373205742 374.39999999999986" blush:i="0.1.0"><g id="Group-43" transform="translate(6.000000, 42.000000)" blush:i="0.1.0.0"><path d="M73.6611966,261.76198 C72.0061966,297.80098 71.7061966,336.76198 75.8591966,371.85398 C90.7401966,362.77598 86.0041966,242.45298 85.7301966,210.91198 C85.4301966,176.09498 92.9871966,111.81798 79.7411966,79.5429797 L73.6611966,261.76198 Z" id="Fill-89" fill="#AA99F2" blush:i="0.1.0.0.0"/><path d="M74.5215966,25.4758797 C44.3875966,-0.537120256 7.26759662,8.54087974 0.839596617,26.2628797 C-2.33140338,35.0048797 2.75759662,55.6248797 28.6185966,58.8698797 C10.7645966,65.5648797 7.52259662,86.8228797 22.8365966,95.8828797 C40.1925966,106.15088 72.5245966,102.40088 81.0365966,87.0468797 C91.1805966,101.46088 120.674597,104.88488 135.522597,92.1948797 C148.668597,80.9588797 149.641597,60.5588797 127.040597,53.9048797 C137.344597,55.5348797 154.063597,52.2128797 159.036597,45.0658797 C163.688597,38.3778797 161.850597,24.5608797 156.686597,18.3308797 C142.889597,1.68787974 106.757597,0.790879744 74.5215966,25.4758797" id="Fill-91" fill="#556EF8" blush:i="0.1.0.0.1"/><path d="M78.0615966,59.1525797 C80.7575966,42.7915797 97.1295966,24.9015797 117.315597,30.4295797 C115.104597,17.8325797 88.4425966,4.39057974 77.4165966,3.39757974 C57.1925966,1.57657974 43.7565966,13.3715797 33.2935966,27.8885797 C33.2935966,27.8885797 56.5905966,27.1255797 78.0615966,59.1525797" id="Fill-93" fill="#FFC5EB" blush:i="0.1.0.0.2"/><path d="M56.4990966,20.2033797 C58.0650966,30.3123797 71.5290966,17.9943797 62.3190966,15.3783797 C59.1530966,14.4783797 56.0280966,17.1663797 56.4990966,20.2033797" id="Fill-95" fill="#FA0000" blush:i="0.1.0.0.3"/><path d="M73.4463966,4.66527974 C74.5443966,-3.54072026 83.8093966,0.276279744 78.1533966,6.91627974 C75.2783966,10.2912797 73.0283966,7.79127974 73.4463966,4.66527974" id="Fill-97" fill="#FA0000" blush:i="0.1.0.0.4"/><path d="M82.7861966,27.9426797 C82.9591966,22.5496797 94.9351966,23.7526797 91.1751966,29.3306797 C88.8581966,32.7646797 82.6521966,32.1026797 82.7861966,27.9426797" id="Fill-99" fill="#FA0000" blush:i="0.1.0.0.5"/><path d="M83.3213966,240.47678 C85.7983966,220.19378 65.7823966,180.95578 56.0733966,162.69978 C51.0223966,153.20178 34.2313966,126.05178 20.2983966,130.46078 C-0.364603383,137.00178 13.7023966,178.18378 20.2703966,190.42578 C30.0813966,208.71278 46.5793966,243.54278 81.2903966,251.74278 C103.837397,257.06878 138.743397,206.12878 145.544397,179.69978 C151.624397,156.07678 151.624397,137.40978 136.344397,135.67578 C119.716397,133.78978 100.190397,166.56178 96.0983966,177.40278 C89.2803966,195.47678 82.6633966,221.30478 83.3213966,240.47678" id="Fill-101" fill="#AA99F2" blush:i="0.1.0.0.6"/><path d="M47.4248966,372.95828 C50.5218966,354.75428 60.8188966,292.62028 30.7218966,281.77328 C0.349896617,270.82628 -4.08110338,310.68628 4.94089662,330.29128 C17.8838966,358.41928 47.4248966,372.95828 47.4248966,372.95828" id="Fill-103" fill="#AA99F2" blush:i="0.1.0.0.7"/></g></g></g><g id="Big Flower" transform="translate(446.000000, 193.000000) scale(1 1)" blush:width="174" blush:height="416" blush:component="Big Flower" blush:i="0.2" blush:value="Flower 1" blush:viewBox="0.6244019138756016 37.44 172.7511961722488 376.47999999999985"><g id="Big Flower/Flower 1" stroke="none" stroke-width="1" fill="none" fill-rule="evenodd" blush:viewBox="0.6244019138756016 37.44 172.7511961722488 376.47999999999985" blush:i="0.2.0"><g id="Group-42" transform="translate(1.000000, 38.000000)" blush:i="0.2.0.0"><path d="M76.9099298,68.4980163 C40.5559298,71.3210163 54.4609298,153.766016 99.5579298,128.168016 C115.46693,119.139016 124.54493,101.385016 116.09793,83.8850163 C108.60193,68.3570163 93.0039298,67.2480163 76.9099298,68.4980163" id="Fill-1" fill="#AA99F2" blush:i="0.2.0.0.0"/><path d="M85.7244298,122.249016 C92.8314298,139.046016 84.8274298,180.439016 83.0584298,198.510016 C80.9414298,220.166016 81.3724298,241.603016 78.1914298,262.751016 C75.2914298,282.017016 74.2714298,302.369016 75.2264298,322.336016 C75.9564298,337.602016 73.8394298,362.412016 79.7674298,376.174016 C92.8744298,339.656016 87.0784298,293.936016 91.3904298,255.256016 C93.5214298,236.145016 107.39243,130.422016 85.7244298,122.249016" id="Fill-3" fill="#AA99F2" blush:i="0.2.0.0.1"/><path d="M75.2253298,318.248016 C80.1383298,283.347016 84.0093298,244.466016 63.5543298,205.752016 C49.2793298,178.736016 23.6673298,166.432016 9.60332978,198.592016 C-3.73667022,229.097016 -2.65667022,260.510016 9.61132978,270.201016 C26.6983298,283.699016 29.5873298,214.019016 45.2633298,213.847016 C65.5483298,213.625016 75.5133298,280.472016 75.2253298,318.248016" id="Fill-5" fill="#AA99F2" blush:i="0.2.0.0.2"/><path d="M91.0134298,258.346716 C87.7634298,215.096716 122.26343,161.846716 153.29843,185.890716 C189.02943,213.572716 162.80443,318.125716 141.26943,307.927716 C125.26343,300.346716 144.72843,218.126716 135.59543,207.212716 C118.76343,187.096716 93.2634298,238.096716 91.0134298,258.346716" id="Fill-7" fill="#AA99F2" blush:i="0.2.0.0.3"/><path d="M56.5232298,65.2451163 C41.1612298,54.3321163 21.0702298,23.1211163 36.5622298,6.19111626 C57.5412298,-16.7358837 73.6422298,30.4551163 75.1912298,43.3081163 C77.2692298,30.5451163 82.6322298,-1.75088374 97.4252298,6.45511626 C105.21423,10.7751163 102.92723,26.1401163 102.23023,34.9801163 C107.10523,26.1291163 118.11323,4.57311626 132.22223,16.7681163 C142.68923,25.8121163 139.90623,45.4511163 132.22223,54.2601163 C105.76323,84.5971163 74.2632298,77.8471163 56.5232298,65.2451163" id="Fill-9" fill="#FFC5EB" blush:i="0.2.0.0.4"/><path d="M64.7302298,49.6162163 C60.1622298,49.4842163 58.3282298,57.6272163 61.9532298,61.5382163 C63.2222298,62.9072163 67.2562298,63.6912163 68.9212298,63.0332163 C74.0152298,61.0192163 68.3882298,49.7212163 64.7302298,49.6162163" id="Fill-11" fill="#FA0000" blush:i="0.2.0.0.5"/><path d="M97.0173298,32.2461163 C91.8083298,27.5721163 86.8673298,42.3651163 94.7243298,42.4062019 C100.33333,42.4351163 100.18333,35.0881163 97.0173298,32.2461163" id="Fill-13" fill="#FA0000" blush:i="0.2.0.0.6"/><path d="M100.78393,58.6504163 C94.8959298,55.4044163 92.8269298,64.4984163 95.0289298,65.9574163 C100.62693,69.6654163 107.73493,62.4824163 100.78393,58.6504163" id="Fill-15" fill="#FA0000" blush:i="0.2.0.0.7"/><path d="M109.66483,3.67191626 C100.28883,5.69691626 114.59483,21.9079163 116.40783,10.3839163 C116.85183,7.56491626 112.14783,3.13491626 109.66483,3.67191626" id="Fill-17" fill="#FA0000" blush:i="0.2.0.0.8"/><path d="M50.7751298,369.125016 C50.7751298,369.125016 64.6511298,337.180016 55.6041298,311.436016 C49.7741298,320.359016 46.2731298,330.881016 46.3201298,341.609016 C46.4961298,331.433016 40.8961298,321.000016 35.3511298,314.578016 C28.0191298,329.879016 41.1991298,357.178016 50.7751298,369.125016" id="Fill-19" fill="#AA99F2" blush:i="0.2.0.0.9"/><path d="M94.3552298,373.728516 C93.8892298,369.539516 95.7302298,336.478516 116.18723,321.554516 C116.43823,333.396516 99.8062298,370.978516 94.3552298,373.728516" id="Fill-21" fill="#AA99F2" blush:i="0.2.0.0.10"/></g></g></g><g transform="translate(538.050800, 149.000000) scale(1 1)" blush:width="520" blush:height="517" id="Master/Character/Pink Sitting On Floor" blush:component="Master/Character/Pink Sitting On Floor" blush:i="0.3" blush:value="Pink Sitting On Floor" blush:viewBox="-18.200000000000045 225.99245472837026 522.5999999999999 291.2676056338029"><g id="Master/Character/Pink Sitting On Floor" stroke="none" stroke-width="1" fill="none" fill-rule="evenodd" blush:viewBox="-18.200000000000045 225.99245472837026 522.5999999999999 291.2676056338029" blush:i="0.3.0"><g id="Pink Lower Sitting On Floor" transform="translate(-16.000000, 324.000000) scale(1 1)" blush:width="552" blush:height="193" blush:component="Pink Lower Sitting On Floor" blush:i="0.3.0.0" blush:value="Legs Crossed Black Sweater Copy" blush:viewBox="-2.759999999999991 9.650000000000006 554.7599999999999 184.7285714285714"><g id="Pink Lower Sitting On Floor/Legs Crossed Black Sweater Copy" stroke="none" stroke-width="1" fill="none" fill-rule="evenodd" blush:viewBox="-2.759999999999991 9.650000000000006 554.7599999999999 184.7285714285714" blush:i="0.3.0.0.0"><g id="Group-46" transform="translate(-1.000000, 12.000000)" blush:i="0.3.0.0.0.0"><path d="M172.932381,131.94013 C165.137547,138.673926 151.855841,132.078136 139.888998,132.85364 C135.939443,133.110954 132.4487,134.605869 131.829999,133.192867 C131.045451,131.398791 134.786455,130.037429 138.62081,129.292198 C135.365432,128.677849 129.941125,130.887724 129.483306,128.777569 C129.106922,127.05116 134.235285,126.217783 137.486691,125.54467 C135.037709,124.008799 128.454456,127.307584 128.011534,124.738004 C127.550736,122.063361 141.011199,119.71548 148.00361,121.799814 C151.324533,122.792566 154.915579,123.240418 158.429163,122.731131 C161.84741,122.236091 171.165657,120.025326 172.419942,124.342684 C173.659329,128.607511 174.987102,130.165641 172.932381,131.94013" id="Fill-1" fill="#FFC5EB" blush:i="0.3.0.0.0.0.0"/><g id="Group-5" transform="translate(0.000000, 152.000000)" fill="#FFC5EB" blush:i="0.3.0.0.0.0.1"><path d="M72.7417,4.99642813 C62.0187,23.2537406 45.5997,26.3993344 41.7447,27.6988969 C40.0367,28.2752719 36.7107,29.2513031 34.8427,28.9404594 C31.5707,28.3958031 34.0507,26.8098656 35.8707,25.7830844 C38.1047,24.5224906 40.8157,23.7603344 42.8817,22.3783031 C38.9397,22.1626156 34.5627,22.0683656 30.7357,22.3474906 C26.5847,22.6501781 22.9137,23.7712094 19.0887,24.9384594 C16.3527,25.7740219 10.3957,27.9390531 8.7017,27.0717719 C6.1197,25.7513656 11.2917,23.9062406 12.9397,22.9782406 C9.8907,22.9129906 6.1827,25.6299281 3.9177,23.9071469 C2.2107,22.6103031 6.9387,21.0134906 8.4417,20.1860844 C6.9257,19.8063656 -0.3083,21.5373031 0.0107,19.3849594 C0.2327,17.8751469 6.1177,16.8646781 7.1147,16.4840531 C5.1667,16.3825531 2.6217,16.7813031 2.3567,15.2859906 C1.9767,13.1336469 17.3297,10.7828344 24.2467,10.7828344 C31.0337,10.7828344 41.4577,11.5685531 45.5227,9.57570938 C49.4757,7.63724063 52.0197,4.20799063 55.7387,1.66142813 C59.6587,-1.02379062 75.0067,1.13942813 72.7417,4.99642813" id="Fill-3" blush:i="0.3.0.0.0.0.1.0"/></g><path d="M247.730691,102.686211 C250.58391,140.38755 292.820738,147.331213 327.155269,149.655199 C341.980818,150.657453 494.259379,159.983521 507.108853,157.616633 C511.587488,146.102585 519.594682,126.330445 514.193947,113.957453 C508.464532,100.828664 252.402138,79.7612621 231,98.3029495" id="Fill-6" fill="#0042FF" blush:i="0.3.0.0.0.0.2"/><path d="M513.024293,123.601059 C529.006371,127.911004 542.543793,116.75516 551.58396,105.714873 C552.695619,104.358875 553.398346,105.068472 552.754179,106.699823 C546.010779,123.800576 539.691198,137.034656 526.657992,138.845664 C529.4957,139.799016 535.530418,141.318421 535.530418,141.318421 C534.38005,144.926894 532.872363,147.991885 530.684777,151 C524.0049,149.905812 513.594018,147.785145 506,146.857071" id="Fill-8" fill="#1C1B1A" blush:i="0.3.0.0.0.0.3"/><path d="M509.995376,105.640607 C526.905675,106.516549 537.440323,92.6903553 543.554776,79.9244164 C544.307107,78.3568456 545.185499,78.9061341 544.965649,80.6470684 C542.671342,98.8912931 539.808249,113.241227 527.381681,117.767838 C530.432352,118.108178 540.950864,118.466767 540.950864,118.466767 C540.736057,122.258865 535.868093,125.456965 534.473357,128.8777 C527.58842,129.20709 516.748201,129.313846 509,130" id="Fill-10" fill="#1C1B1A" blush:i="0.3.0.0.0.0.4"/><path d="M204.689411,133.807737 C220.261092,168.85467 274.127551,161.519775 309.138547,157.452749 C323.923082,155.734789 509.379209,132.72271 520.816869,126.821732 C521.160369,114.60056 521.981565,92.9822117 512.620931,82.7484307 C505.236175,74.6755712 366.11754,77.3406469 253.025816,113.962148 C239.398967,84.554983 179.102141,82.8644227 205.694875,135.596936" id="Fill-12" fill="#0042FF" blush:i="0.3.0.0.0.0.5"/><path d="M507,130 C507,130 475.590239,142.628371 362,150 C396.250144,144.058307 495.614388,131.474508 507,130" id="Fill-14" fill="#1C1B1A" blush:i="0.3.0.0.0.0.6"/><path d="M180.313846,73 C175.438679,85.0313776 153.163696,124.154593 170.504907,132.410579 C184.199676,138.929136 197.530894,124.154593 199,110.652521" id="Fill-16" fill="#000" blush:i="0.3.0.0.0.0.7"/><path d="M134.636077,15.9330804 C153.347743,-0.820387055 175.527753,5.5609797 180.625848,6.69782214 C185.222327,7.72496925 189.25224,8.64514076 193.300139,8.69681542 C201.870574,8.80197788 197.764719,4.12678135 205.514782,1.9056777 C242.628353,-8.73204889 233.990969,28.21805 230.905333,37.4533083 C229.393491,41.9798269 242.765248,68.432718 245.596079,74.1976152 C247.569568,78.2119201 260.052006,98.8826891 252.708631,109.543987 C245.214372,120.422862 229.934077,125.024626 213.844402,124.321125 C197.213142,123.595867 188.868534,110.729784 181.422238,97.9888082 C173.046654,83.656797 163.979599,70.5223686 155.789872,57.1767087 C155.789872,57.1767087 135.66329,79.7059522 124.016212,95.4504041 C110.504562,113.715129 76.8743231,180.314695 53.4852395,164.62917 C18.5969645,141.232336 115.95039,32.662977 134.636077,15.9330804" id="Fill-18" fill="#000" blush:i="0.3.0.0.0.0.8"/><path d="M340,94 C312.980146,97.8566131 265.307138,109.109394 255,115 C305.169049,104.946848 334.778647,96.4140915 340,94" id="Fill-20" fill="#1C1B1A" blush:i="0.3.0.0.0.0.9"/><path d="M194,115 C187.230693,105.763449 176,88 176,88 C178.461385,99.5109429 185.537618,111.162712 194,115" id="Fill-22" fill="#0042FF" blush:i="0.3.0.0.0.0.10"/><path d="M208.708972,23.8454134 C208.603231,17.5332836 208.459582,12.6752522 208.994275,9.5380418 C209.141915,8.68177007 206.469444,4.27900663 196.830991,4.01688263 C185.525612,3.71061143 182.597765,7.65074901 183.042678,9.39364367 C184.414327,14.7722442 182.885063,17.5378823 183.263139,20.0726673 C183.263139,20.0726673 183.258151,31.8608894 197.6051,31.9988494 C209.539942,32.1119766 208.708972,23.8454134 208.708972,23.8454134" id="Fill-24" fill="#FFC5EB" blush:i="0.3.0.0.0.0.11"/><path d="M188.630795,6.08993177 C190.371312,5.47766099 193.404784,5.04347196 194.255151,5.01868739 C202.875186,4.74972886 206.392025,7.46409872 206.719242,8.01119525 C207.216533,8.84560925 207.0206,9.74886929 206.388046,10.4373297 C205.735601,11.1487388 201.326623,13.2545096 195.634635,12.9745357 C190.205217,12.7064952 185.853925,11.4819536 185.149761,9.60842337 C184.358075,7.50540635 186.879338,6.70495639 188.630795,6.08993177" id="Fill-26" fill="#FA0000" blush:i="0.3.0.0.0.0.12"/><path d="M194.768369,8.04842891 C195.854039,7.97142363 197.527871,7.92084173 198.385831,8.43043549 C199.417542,9.04194801 199.100258,9.64666594 197.801986,9.88145655 C196.806968,10.0618905 194.335611,10.0762346 193.518661,9.6391164 C192.28514,8.9785319 193.474414,8.11184502 194.768369,8.04842891" id="Fill-28" fill="#FFC5EB" blush:i="0.3.0.0.0.0.13"/></g></g></g><g id="Head" transform="translate(141.000000, 291.000000) scale(1 1)" blush:width="70" blush:height="73" blush:component="Head" blush:i="0.3.0.1" blush:value="Medium Wavy Hair Blue 1" blush:viewBox="0.4749478079331979 0 68.6847599164927 72.63499999999998"><g id="Head/Medium Wavy Hair Blue 1" stroke="none" stroke-width="1" fill="none" fill-rule="evenodd" blush:viewBox="0.4749478079331979 0 68.6847599164927 72.63499999999998" blush:i="0.3.0.1.0"><g id="Head" blush:i="0.3.0.1.0.0"><path d="M50.9618,55.2482 C51.2598,52.9642 51.6908,51.4042 52.6578,50.6532 C55.0548,48.7922 61.8138,51.4852 63.2228,47.5382 C63.8478,45.7882 59.6578,40.1532 59.5928,38.3332 C59.5358,36.7542 70.3728,38.1802 68.9958,35.8192 C67.8288,33.8192 55.4958,35.8192 52.8298,18.4872 C52.0878,13.6602 47.6488,10.2622 36.3298,8.3192 C32.8048,7.7152 24.3268,6.8912 17.9368,11.0782 C12.1598,14.8642 10.6238,28.7052 17.7848,39.5332 C22.2708,46.3152 24.1758,51.2072 24.9838,54.9182 C25.1378,55.6222 26.6648,60.5442 38.4148,60.5442 C50.6658,60.5442 50.8988,55.7322 50.9618,55.2482" id="Fill-41" fill="#FFC5EB" blush:i="0.3.0.1.0.0.0"/><path d="M38.788,32.2003 C40.324,39.9493 36.491,47.6993 29.26,45.6243 C28.808,50.0333 29.685,56.6483 35.809,64.3043 C40.158,73.1993 24.324,75.6173 21.937,67.4513 C16.074,73.8663 -1.592,69.1173 1.074,59.2823 C2.35,54.5763 8.7,56.8323 10.989,54.4913 C16.246,49.1173 10.121,35.9913 6.746,25.2413 C2.81,12.7043 11.01,3.9063 17.996,1.3373 C28.329,-2.4667 37.503,4.2123 37.503,4.2123 C37.503,4.2123 52.829,0.5333 54.127,16.6973 C51.288,12.0333 48.076,11.4143 46.547,11.0063 C47.996,18.1173 44.408,19.1173 40.408,18.8663 C36.76,18.6373 34.643,16.7543 34.537,17.7963 C34.119,21.8683 37.854,27.4923 38.788,32.2003" id="Fill-43" fill="#0042FF" blush:i="0.3.0.1.0.0.1"/></g></g></g><g id="Expression" transform="translate(165.000000, 298.000000) scale(1 1)" blush:width="80" blush:height="77" blush:component="Expression" blush:i="0.3.0.2" blush:value="Gum" blush:viewBox="14.799999999999997 11.886174636174644 59.60000000000001 31.216216216216218"><g id="Expression/Gum" stroke="none" stroke-width="1" fill="none" fill-rule="evenodd" blush:viewBox="14.799999999999997 11.886174636174644 59.60000000000001 31.216216216216218" blush:i="0.3.0.2.0"><g id="Group-18" transform="translate(15.000000, 11.000000)" blush:i="0.3.0.2.0.0"><g id="Group-6" transform="translate(0.000000, 0.636880)" fill="#0042FF" blush:i="0.3.0.2.0.0.0"><path d="M10.4924,0.873787037 C8.5954,2.33332407 4.7464,1.85665741 2.7204,1.07036111 C1.0084,0.407305556 -1.1866,3.89063889 0.7664,4.64739815 C4.1294,5.95008333 8.9484,5.8054537 11.9084,3.53110185 C13.7184,2.13980556 12.6404,-0.777231481 10.4924,0.873787037" id="Fill-4" blush:i="0.3.0.2.0.0.0.0"/></g><path d="M16.8625,5.68221296 L17.6125,5.68221296 C18.5355,5.68221296 19.3565,4.83684259 19.6225,3.98943519 C19.8585,3.23573148 19.5915,2.28850926 18.6785,2.28850926 L17.9285,2.28850926 C17.0065,2.28850926 16.1845,3.13387963 15.9195,3.98128704 C15.6825,4.73499074 15.9505,5.68221296 16.8625,5.68221296" id="Fill-7" fill="#0042FF" blush:i="0.3.0.2.0.0.1"/><path d="M19.6828,12.5283889 C20.2528,12.6119074 20.9118,12.5345 21.4168,12.2289444 C21.9218,11.9233889 22.3868,11.3285741 22.2758,10.6889444 C22.1728,10.1002407 21.5208,9.98311111 21.0698,10.2560741 C20.8668,10.3782963 21.3198,10.1776481 21.0618,10.2632037 C20.9048,10.3151481 20.6408,10.3019074 20.3938,10.2662593 C19.3088,10.1083889 18.2828,12.3246852 19.6828,12.5283889" id="Fill-9" fill="#0042FF" blush:i="0.3.0.2.0.0.2"/><path d="M12.6496,10.6693889 C10.7526,11.003463 8.8666,10.5858704 7.0766,9.94624074 C5.8876,9.52151852 4.3856,11.9211481 5.7346,12.4029074 C7.9186,13.1830926 10.1426,13.5344815 12.4386,13.1301296 C13.6926,12.9091111 14.3626,10.3679074 12.6496,10.6693889" id="Fill-11" fill="#0042FF" blush:i="0.3.0.2.0.0.3"/><path d="M7.633,15.6755093 C10.529,15.4616204 13.48,16.570787 15.463,18.7239352 C16.349,19.6864352 18.185,17.5251389 17.27,16.5320833 C15.07,14.1426389 11.642,12.8959722 8.432,13.13125 C7.217,13.2208796 6.091,15.7885648 7.633,15.6755093" id="Fill-13" fill="#FA0000" blush:i="0.3.0.2.0.0.4"/><g id="Group-17" transform="translate(21.000000, 19.988731)" fill="#0042FF" blush:i="0.3.0.2.0.0.5"><path d="M4.5217,0.7425 C2.7127,1.04601852 0.5327,2.87018519 0.9667,4.93166667 C1.2887,6.46046296 3.0327,6.72324074 4.2667,7.07666667 C5.1567,7.3312963 6.0407,6.62851852 6.4517,5.87685185 C6.7897,5.25861111 6.9497,4.0537037 6.0557,3.79805556 C5.7457,3.70944444 5.4307,3.63712963 5.1187,3.55259259 C4.9307,3.50064815 4.7467,3.44055556 4.5617,3.37638889 C4.4717,3.34481481 4.3817,3.30916667 4.2937,3.27046296 C3.9077,3.11055556 4.4587,3.40388889 4.1357,3.19101852 C4.0707,3.14518519 4.0097,3.09425926 3.9537,3.03824074 C4.0557,3.1787963 4.0697,3.18287037 3.9957,3.0525 C4.2157,3.4925 3.8767,3.98342593 3.5777,4.26861111 C3.7377,4.14333333 3.7297,4.14231481 3.5537,4.26555556 C3.6427,4.21157407 3.7337,4.1637037 3.8267,4.11888889 C3.6587,4.18 3.6647,4.17898148 3.8437,4.11685185 C3.9727,4.07407407 4.1057,4.04861111 4.2387,4.02722222 C5.9157,3.74509259 6.8097,0.358518519 4.5217,0.7425" id="Fill-15" blush:i="0.3.0.2.0.0.5.0"/></g></g><g id="Group-6" transform="translate(40.000000, 16.000000)" blush:i="0.3.0.2.0.1"><g id="Group-3" transform="translate(0.000000, 0.761100)" fill="#FFC5EB" blush:i="0.3.0.2.0.1.0"><path d="M0.5586,17.4642 C11.0256,15.1422 9.2816,1.0272 21.4566,0.2692 C34.8106,-0.5608 37.4786,16.0852 29.7516,23.4562 C25.0666,27.9272 18.3126,25.6422 13.3746,23.1512 C8.8436,20.8642 4.4746,18.9502 -0.0004,17.4642" id="Fill-1" blush:i="0.3.0.2.0.1.0.0"/></g><path d="M20.8945,5.3361 C23.9675,5.6301 30.0835,8.5511 29.1405,12.4731 C28.7575,14.0651 30.8205,13.6761 31.1095,12.4781 C32.3735,7.2231 26.0815,3.5431 21.6055,3.1141 C20.5135,3.0101 19.4895,5.2011 20.8945,5.3361" id="Fill-4" fill="#FFF" blush:i="0.3.0.2.0.1.1"/></g></g></g><g id="Accesories" transform="translate(50.000000, 205.000000) scale(1 1)" fill="#000" blush:width="233" blush:height="143" blush:component="Accesories" blush:i="0.3.0.3" blush:value="None" blush:viewBox="407.75 250.25 0 0"><g id="Accesories/None" stroke="none" stroke-width="1" fill="none" fill-rule="evenodd" fill-opacity="0" blush:viewBox="407.75 250.25 0 0" blush:i="0.3.0.3.0"/></g><g id="Glasses" transform="translate(158.000000, 293.000000) scale(1 1)" fill="#000" blush:width="59" blush:height="44" blush:component="Glasses" blush:i="0.3.0.4" blush:value="Clear Glasses" blush:viewBox="8.850000000000001 13.005361930294903 40.71 17.10455764075068"><g id="Glasses/Clear Glasses" stroke="none" stroke-width="1" fill="none" fill-rule="evenodd" blush:viewBox="8.850000000000001 13.005361930294903 40.71 17.10455764075068" blush:i="0.3.0.4.0"><g id="Group-11" transform="translate(9.000000, 12.000000)" fill="#FA0000" blush:i="0.3.0.4.0.0"><g id="Group-10" transform="translate(0.000000, 0.076200)" blush:i="0.3.0.4.0.0.0"><path d="M21.2735,3.1816 C18.7575,3.1816 16.7115,6.0806 16.7115,9.6446 C16.7115,13.2076 18.7575,16.1076 21.2735,16.1076 C23.7885,16.1076 25.8335,13.2076 25.8335,9.6446 C25.8335,6.0806 23.7885,3.1816 21.2735,3.1816 M21.2735,17.9996 C17.7145,17.9996 14.8195,14.2516 14.8195,9.6446 C14.8195,5.0366 17.7145,1.2886 21.2735,1.2886 C24.8315,1.2886 27.7255,5.0366 27.7255,9.6446 C27.7255,14.2516 24.8315,17.9996 21.2735,17.9996" id="Fill-2" blush:i="0.3.0.4.0.0.0.0"/><g id="Group-6" transform="translate(27.000000, 0.000000)" blush:i="0.3.0.4.0.0.0.1"><path d="M6.918,2.8164 C4.402,2.8164 2.356,5.7154 2.356,9.2794 C2.356,12.8424 4.402,15.7424 6.918,15.7424 C9.433,15.7424 11.479,12.8424 11.479,9.2794 C11.479,5.7154 9.433,2.8164 6.918,2.8164 M6.918,17.6344 C3.359,17.6344 0.464,13.8864 0.464,9.2794 C0.464,4.6714 3.359,0.9234 6.918,0.9234 C10.477,0.9234 13.371,4.6714 13.371,9.2794 C13.371,13.8864 10.477,17.6344 6.918,17.6344" id="Fill-4" blush:i="0.3.0.4.0.0.0.1.0"/></g><g id="Group-9" transform="translate(0.000000, 10.000000)" blush:i="0.3.0.4.0.0.0.2"><path d="M15.3887,2.1123 L0.8257,2.1123 C0.3697,2.1123 -0.0003,1.7423 -0.0003,1.2863 C-0.0003,0.8293 0.3697,0.4603 0.8257,0.4603 L15.3887,0.4603 C15.8447,0.4603 16.2147,0.8293 16.2147,1.2863 C16.2147,1.7423 15.8447,2.1123 15.3887,2.1123" id="Fill-7" blush:i="0.3.0.4.0.0.0.2.0"/></g></g></g></g></g></g></g><g id="Big Flower" transform="translate(1052.000000, 322.000000) scale(1 1)" blush:width="174" blush:height="416" blush:component="Big Flower" blush:i="0.4" blush:value="Flower 1" blush:viewBox="0.6244019138756016 37.44 172.7511961722488 376.47999999999985"><g id="Big Flower/Flower 1" stroke="none" stroke-width="1" fill="none" fill-rule="evenodd" blush:viewBox="0.6244019138756016 37.44 172.7511961722488 376.47999999999985" blush:i="0.4.0"><g id="Group-42" transform="translate(1.000000, 38.000000)" blush:i="0.4.0.0"><path d="M76.9099298,68.4980163 C40.5559298,71.3210163 54.4609298,153.766016 99.5579298,128.168016 C115.46693,119.139016 124.54493,101.385016 116.09793,83.8850163 C108.60193,68.3570163 93.0039298,67.2480163 76.9099298,68.4980163" id="Fill-1" fill="#AA99F2" blush:i="0.4.0.0.0"/><path d="M85.7244298,122.249016 C92.8314298,139.046016 84.8274298,180.439016 83.0584298,198.510016 C80.9414298,220.166016 81.3724298,241.603016 78.1914298,262.751016 C75.2914298,282.017016 74.2714298,302.369016 75.2264298,322.336016 C75.9564298,337.602016 73.8394298,362.412016 79.7674298,376.174016 C92.8744298,339.656016 87.0784298,293.936016 91.3904298,255.256016 C93.5214298,236.145016 107.39243,130.422016 85.7244298,122.249016" id="Fill-3" fill="#AA99F2" blush:i="0.4.0.0.1"/><path d="M75.2253298,318.248016 C80.1383298,283.347016 84.0093298,244.466016 63.5543298,205.752016 C49.2793298,178.736016 23.6673298,166.432016 9.60332978,198.592016 C-3.73667022,229.097016 -2.65667022,260.510016 9.61132978,270.201016 C26.6983298,283.699016 29.5873298,214.019016 45.2633298,213.847016 C65.5483298,213.625016 75.5133298,280.472016 75.2253298,318.248016" id="Fill-5" fill="#AA99F2" blush:i="0.4.0.0.2"/><path d="M91.0134298,258.346716 C87.7634298,215.096716 122.26343,161.846716 153.29843,185.890716 C189.02943,213.572716 162.80443,318.125716 141.26943,307.927716 C125.26343,300.346716 144.72843,218.126716 135.59543,207.212716 C118.76343,187.096716 93.2634298,238.096716 91.0134298,258.346716" id="Fill-7" fill="#AA99F2" blush:i="0.4.0.0.3"/><path d="M56.5232298,65.2451163 C41.1612298,54.3321163 21.0702298,23.1211163 36.5622298,6.19111626 C57.5412298,-16.7358837 73.6422298,30.4551163 75.1912298,43.3081163 C77.2692298,30.5451163 82.6322298,-1.75088374 97.4252298,6.45511626 C105.21423,10.7751163 102.92723,26.1401163 102.23023,34.9801163 C107.10523,26.1291163 118.11323,4.57311626 132.22223,16.7681163 C142.68923,25.8121163 139.90623,45.4511163 132.22223,54.2601163 C105.76323,84.5971163 74.2632298,77.8471163 56.5232298,65.2451163" id="Fill-9" fill="#FFC5EB" blush:i="0.4.0.0.4"/><path d="M64.7302298,49.6162163 C60.1622298,49.4842163 58.3282298,57.6272163 61.9532298,61.5382163 C63.2222298,62.9072163 67.2562298,63.6912163 68.9212298,63.0332163 C74.0152298,61.0192163 68.3882298,49.7212163 64.7302298,49.6162163" id="Fill-11" fill="#FA0000" blush:i="0.4.0.0.5"/><path d="M97.0173298,32.2461163 C91.8083298,27.5721163 86.8673298,42.3651163 94.7243298,42.4062019 C100.33333,42.4351163 100.18333,35.0881163 97.0173298,32.2461163" id="Fill-13" fill="#FA0000" blush:i="0.4.0.0.6"/><path d="M100.78393,58.6504163 C94.8959298,55.4044163 92.8269298,64.4984163 95.0289298,65.9574163 C100.62693,69.6654163 107.73493,62.4824163 100.78393,58.6504163" id="Fill-15" fill="#FA0000" blush:i="0.4.0.0.7"/><path d="M109.66483,3.67191626 C100.28883,5.69691626 114.59483,21.9079163 116.40783,10.3839163 C116.85183,7.56491626 112.14783,3.13491626 109.66483,3.67191626" id="Fill-17" fill="#FA0000" blush:i="0.4.0.0.8"/><path d="M50.7751298,369.125016 C50.7751298,369.125016 64.6511298,337.180016 55.6041298,311.436016 C49.7741298,320.359016 46.2731298,330.881016 46.3201298,341.609016 C46.4961298,331.433016 40.8961298,321.000016 35.3511298,314.578016 C28.0191298,329.879016 41.1991298,357.178016 50.7751298,369.125016" id="Fill-19" fill="#AA99F2" blush:i="0.4.0.0.9"/><path d="M94.3552298,373.728516 C93.8892298,369.539516 95.7302298,336.478516 116.18723,321.554516 C116.43823,333.396516 99.8062298,370.978516 94.3552298,373.728516" id="Fill-21" fill="#AA99F2" blush:i="0.4.0.0.10"/></g></g></g><g id="Flower" transform="translate(796.000000, 537.000000) scale(1 1)" blush:width="178" blush:height="287" blush:component="Flower" blush:i="0.5" blush:value="Small Flower 1" blush:viewBox="34.45161290322582 33.004999999999995 109.09677419354837 253.99499999999998"><g id="Flower/Small Flower 1" stroke="none" stroke-width="1" fill="none" fill-rule="evenodd" blush:viewBox="34.45161290322582 33.004999999999995 109.09677419354837 253.99499999999998" blush:i="0.5.0"><g id="Flower-1" transform="translate(35.000000, 33.000000)" blush:i="0.5.0.0"><path d="M58.9106179,73.4200219 C25.2466179,112.070022 -0.144382094,41.8740219 -7.10542736e-14,26.2940219 C0.137617906,11.1880219 10.1896179,2.58202186 24.7856179,1.42102186 C38.1726179,0.356021861 47.5976179,8.34302186 54.2346179,18.6210219 C63.3596179,6.74802186 68.8826179,-1.29297814 86.0256179,0.172021861 C100.810618,1.43602186 109.234618,12.7790219 107.846618,26.9820219 C99.7426179,109.889022 58.8526179,73.4210219 58.9106179,73.4200219" id="Fill-89" fill="#FD839D" blush:i="0.5.0.0.0"/><path d="M57.0405179,62.5109219 C57.0405179,96.2159219 57.0125179,142.852922 55.4675179,176.483922 C54.4345179,198.949922 54.2485179,223.238922 56.8365179,245.114922 C66.1135179,239.454922 63.1615179,164.447922 62.9905179,144.785922 C62.8035179,123.079922 65.2975179,82.6299219 57.0405179,62.5109219" id="Fill-91" fill="#AA99F2" blush:i="0.5.0.0.1"/><path d="M26.5092179,22.4659219 C39.7922179,22.0059219 52.3472179,27.5479219 55.9422179,41.7369219 C60.1842179,31.7959219 67.8282179,20.3849219 80.4122179,23.8309219 C79.0332179,15.9779219 62.4142179,7.59892186 55.5402179,6.97992186 C42.9342179,5.84492186 33.0302179,13.4149219 26.5092179,22.4659219" id="Fill-93" fill="#FFC5EB" blush:i="0.5.0.0.2"/><path d="M42.5014179,17.4562219 C43.4894179,23.7562219 52.0334179,15.3122219 46.1284179,14.4482219 C44.7794179,14.2502219 42.2344179,15.7572219 42.5014179,17.4562219" id="Fill-95" fill="#FA0000" blush:i="0.5.0.0.3"/><path d="M57.3462179,9.37122186 C58.4992179,11.5822219 57.4282179,15.9802219 53.6922179,11.2082219 C51.2742179,8.12022186 56.3132179,7.39222186 57.3462179,9.37122186" id="Fill-97" fill="#FA0000" blush:i="0.5.0.0.4"/><path d="M58.8872179,22.2804219 C58.9952179,18.9194219 66.4612179,19.6684219 64.1172179,23.1454219 C62.6742179,25.2864219 58.8052179,24.8744219 58.8872179,22.2804219" id="Fill-99" fill="#FA0000" blush:i="0.5.0.0.5"/><path d="M59.2221179,154.772622 C60.7651179,142.127622 48.2871179,117.668622 42.2351179,106.287622 C39.0861179,100.366622 28.6191179,83.4406219 19.9341179,86.1906219 C7.05211791,90.2676219 15.8211179,115.939622 19.9161179,123.571622 C26.0321179,134.970622 41.4551179,154.460622 56.5761179,163.669622 C63.1821179,167.695622 67.5161179,163.195622 73.4931179,158.545622 C87.0341179,148.011622 96.2551179,133.806622 98.0111179,116.884622 C98.7071179,110.165622 101.446118,92.8436219 92.2771179,89.4416219 C82.4951179,85.8126219 69.7371179,108.694622 67.1881179,115.453622 C62.9361179,126.719622 58.8111179,142.821622 59.2221179,154.772622" id="Fill-101" fill="#AA99F2" blush:i="0.5.0.0.6"/><path d="M76.5141179,201.621222 C79.0061179,194.943222 86.5931179,183.914222 95.5021179,190.614222 C106.747118,199.073222 72.5651179,227.802222 70.0181179,233.327222 C70.5911179,222.503222 72.6821179,211.890222 76.5141179,201.621222" id="Fill-103" fill="#AA99F2" blush:i="0.5.0.0.7"/><path d="M47.7339179,253.776522 C47.3029179,244.419522 37.4469179,218.036522 30.9959179,224.893522 C26.7719179,229.385522 31.5749179,235.853522 35.4529179,239.866522 C37.9379179,242.436522 45.9939179,252.646522 47.7339179,253.776522" id="Fill-105" fill="#AA99F2" blush:i="0.5.0.0.8"/></g></g></g><g id="Grass" transform="translate(631.216408, 671.268300)" fill="#AA99F2" blush:i="0.6"><path d="M17.5550918,57.688 C17.5550918,57.688 31.4310918,25.743 22.3840918,4.26325641e-14 C16.5540918,8.923 13.0530918,19.444 13.1000918,30.172 C13.2760918,19.997 7.67609182,9.564 2.13109182,3.141 C-5.20090818,18.442 7.97909182,45.742 17.5550918,57.688" id="Fill-47" blush:i="0.6.0"/><path d="M61.1351918,62.2925 C60.6691918,58.1025 62.5101918,25.0425 82.9671918,10.1175 C83.2181918,21.9615 66.5861918,59.5415 61.1351918,62.2925" id="Fill-49" blush:i="0.6.1"/></g></g></svg>